# xmcd
#
# Track frame offsets:
#	150
#	13012
#	28543
#	46316
#	59116
#	73569
#	87921
#	95383
#	106604
#	121004
#	134520
#	150779
#	167466
#	181116
#	193572
#
# Disc length: 2743 seconds
#
# Revision: 1
# Processed by: cddbd v1.5.1PL0 Copyright (c) Steve Scherf et al.
# Submitted via: audiograbber 1.83.01
#
DISCID=b10ab50f
DTITLE=VEDRAN VADLJA -  A Bite Of Blues
DYEAR=2004
DGENRE=Blues
TTITLE0=Feelin' Free
TTITLE1=Shooting Blues
TTITLE2=You're Gone
TTITLE3=Howllin' Rock
TTITLE4=Across The Moonlight
TTITLE5=Dirty Balls Blues
TTITLE6=Sonic Blues
TTITLE7=Rosie
TTITLE8=Old Friends Blues
TTITLE9=On The Run
TTITLE10=Waitin' for the devil
TTITLE11=One For Stevie
TTITLE12=Again and Again
TTITLE13=Sweet Tripin'
TTITLE14=Howllin' Rock (without howllin) - bonus track
EXTD=2004. Home made recordings.
EXTT0=
EXTT1=
EXTT2=
EXTT3=
EXTT4=
EXTT5=
EXTT6=
EXTT7=
EXTT8=
EXTT9=
EXTT10=
EXTT11=
EXTT12=
EXTT13=
EXTT14=
PLAYORDER=
